<svg width="19" height="21" viewBox="0 0 19 21" fill="none" xmlns="http://www.w3.org/2000/svg">
<path d="M6.03883 4.19085C7.63554 3.4701 9.41887 3.27118 11.1352 3.62238C12.8514 3.97358 14.4133 4.85703 15.5985 6.14705C16.7838 7.43708 17.532 9.06799 17.7369 10.8078C17.9418 12.5476 17.5929 14.3078 16.7398 15.8379C15.8867 17.3679 14.5728 18.5901 12.9851 19.3304C11.3974 20.0707 9.61661 20.2915 7.89615 19.9614C6.17568 19.6314 4.6031 18.7672 3.40209 17.4918C2.20109 16.2164 1.43281 14.5948 1.20655 12.8577M6.03883 4.19085L8.32248 0.495751M6.03883 4.19085C6.03883 4.19085 8.26453 6.13106 9.02516 6.7003" stroke="black" stroke-linecap="round" stroke-linejoin="round"/>
</svg>
