<svg width="434" height="235" viewBox="0 0 434 235" fill="none" xmlns="http://www.w3.org/2000/svg">
<g clip-path="url(#clip0_207_82)">
<path d="M264.666 17.0499C318.757 29.1613 365.821 62.2641 395.505 109.076L219 221L264.666 17.0499Z" fill="#A9F900" stroke="#F6F6F6" stroke-width="8"/>
<path d="M34.6985 122.441C48.7811 96.1067 68.3435 73.0966 92.0681 54.96C115.793 36.8233 143.128 23.9815 172.234 17.2994L219 221L34.6985 122.441Z" fill="#FE9A04" stroke="#F6F6F6" stroke-width="8"/>
<path d="M25 221C16.7157 221 9.94396 214.275 10.538 206.012C13.3289 167.188 26.9196 129.804 49.9155 98.1528L219 221L25 221Z" fill="#E60000" stroke="#F6F6F6" stroke-width="8"/>
<path d="M154.257 22.2806C196.223 8.60834 241.439 8.57235 283.426 22.1778L219 221L154.257 22.2806Z" fill="#FFF500" stroke="#F6F6F6" stroke-width="8"/>
<path d="M414 221C421.732 221 428.049 214.724 427.531 207.01C424.903 167.828 411.277 130.075 388.085 98.1528L219 221H414Z" fill="#5FBF00" stroke="#F6F6F6" stroke-width="8"/>
</g>
<defs>
<clipPath id="clip0_207_82">
<rect width="434" height="235" fill="white"/>
</clipPath>
</defs>
</svg>
