<svg width="195" height="41" viewBox="0 0 195 41" fill="none" xmlns="http://www.w3.org/2000/svg">
<path d="M186.624 12.2682C185.016 12.2682 183.564 12.5503 182.266 13.1143C180.969 13.6502 179.869 14.454 178.967 15.5257C178.064 16.5692 177.373 17.8524 176.894 19.3753C176.414 20.8701 176.175 22.5623 176.175 24.4519C176.175 26.9337 176.555 29.0912 177.317 30.9244C178.106 32.7576 179.263 34.1677 180.786 35.1548C182.337 36.1419 184.269 36.6355 186.581 36.6355C187.907 36.6355 189.162 36.5227 190.347 36.297C191.531 36.0714 192.687 35.7894 193.815 35.451V38.7507C192.687 39.1737 191.517 39.484 190.304 39.6814C189.12 39.8788 187.695 39.9775 186.031 39.9775C182.957 39.9775 180.391 39.3429 178.332 38.0738C176.273 36.8047 174.722 34.9997 173.679 32.6589C172.663 30.318 172.156 27.5683 172.156 24.4096C172.156 22.1251 172.466 20.0381 173.086 18.1485C173.735 16.2589 174.666 14.6232 175.878 13.2412C177.119 11.8593 178.642 10.8017 180.447 10.0684C182.252 9.30695 184.325 8.92621 186.666 8.92621C188.217 8.92621 189.712 9.08132 191.15 9.39155C192.589 9.70179 193.872 10.1389 195 10.703L193.477 13.9181C192.546 13.4951 191.503 13.1143 190.347 12.7759C189.218 12.4375 187.977 12.2682 186.624 12.2682Z" fill="#383838"/>
<path d="M166.984 24.4095C166.984 26.7504 166.688 28.8797 166.096 30.7975C165.503 32.6871 164.615 34.3228 163.43 35.7048C162.274 37.0867 160.822 38.1443 159.073 38.8776C157.353 39.6108 155.35 39.9775 153.066 39.9775C150.697 39.9775 148.638 39.6108 146.889 38.8776C145.141 38.1161 143.688 37.0585 142.532 35.7048C141.376 34.3228 140.516 32.673 139.952 30.7552C139.388 28.8374 139.106 26.7081 139.106 24.3672C139.106 21.2649 139.613 18.5574 140.628 16.2448C141.644 13.9322 143.181 12.1272 145.24 10.8299C147.327 9.53255 149.95 8.88388 153.108 8.88388C156.126 8.88388 158.664 9.53255 160.723 10.8299C162.782 12.099 164.333 13.904 165.376 16.2448C166.448 18.5574 166.984 21.279 166.984 24.4095ZM143.124 24.4095C143.124 26.9478 143.477 29.1335 144.182 30.9667C144.887 32.7999 145.973 34.21 147.439 35.1971C148.934 36.1842 150.81 36.6778 153.066 36.6778C155.35 36.6778 157.212 36.1842 158.65 35.1971C160.117 34.21 161.202 32.7999 161.907 30.9667C162.613 29.1335 162.965 26.9478 162.965 24.4095C162.965 20.6021 162.175 17.6268 160.596 15.4833C159.017 13.3117 156.521 12.2259 153.108 12.2259C150.824 12.2259 148.934 12.7195 147.439 13.7066C145.973 14.6655 144.887 16.0615 144.182 17.8947C143.477 19.6997 143.124 21.8713 143.124 24.4095Z" fill="#383838"/>
<path d="M132.421 39.5544H128.614V12.6912H119.053C118.856 14.2424 118.644 15.8782 118.418 17.5985C118.193 19.2907 117.953 20.9688 117.699 22.6327C117.474 24.2967 117.248 25.862 117.022 27.3285C116.797 28.7951 116.571 30.0783 116.346 31.1782C115.979 33.0678 115.528 34.6753 114.992 36.0009C114.456 37.3264 113.737 38.3276 112.834 39.0045C111.96 39.6813 110.804 40.0198 109.365 40.0198C108.886 40.0198 108.392 39.9634 107.885 39.8506C107.405 39.7659 106.982 39.6531 106.616 39.5121V36.3393C106.926 36.4803 107.278 36.6072 107.673 36.72C108.068 36.8047 108.491 36.847 108.942 36.847C109.788 36.847 110.451 36.5085 110.931 35.8317C111.438 35.1266 111.833 34.2664 112.115 33.2511C112.397 32.2076 112.637 31.1782 112.834 30.1629C113.004 29.345 113.201 28.2592 113.427 26.9055C113.652 25.5235 113.892 23.916 114.146 22.0828C114.428 20.2496 114.71 18.2613 114.992 16.1179C115.302 13.9463 115.598 11.69 115.88 9.34921H132.421V39.5544Z" fill="#383838"/>
<path d="M104.808 24.4095C104.808 26.7504 104.512 28.8797 103.92 30.7975C103.328 32.6871 102.439 34.3228 101.255 35.7048C100.099 37.0867 98.6461 38.1443 96.8975 38.8776C95.1771 39.6108 93.1747 39.9775 90.8903 39.9775C88.5213 39.9775 86.4625 39.6108 84.7139 38.8776C82.9653 38.1161 81.5129 37.0585 80.3566 35.7048C79.2003 34.3228 78.3401 32.673 77.776 30.7552C77.212 28.8374 76.9299 26.7081 76.9299 24.3672C76.9299 21.2649 77.4376 18.5574 78.4529 16.2448C79.4682 13.9322 81.0052 12.1272 83.064 10.8299C85.151 9.53255 87.7739 8.88388 90.9326 8.88388C93.9503 8.88388 96.4886 9.53255 98.5474 10.8299C100.606 12.099 102.157 13.904 103.201 16.2448C104.273 18.5574 104.808 21.279 104.808 24.4095ZM80.9488 24.4095C80.9488 26.9478 81.3014 29.1335 82.0064 30.9667C82.7115 32.7999 83.7973 34.21 85.2639 35.1971C86.7586 36.1842 88.6341 36.6778 90.8903 36.6778C93.1747 36.6778 95.0361 36.1842 96.4745 35.1971C97.941 34.21 99.0268 32.7999 99.7319 30.9667C100.437 29.1335 100.79 26.9478 100.79 24.4095C100.79 20.6021 99.9998 17.6268 98.4205 15.4833C96.8411 13.3117 94.3452 12.2259 90.9326 12.2259C88.6482 12.2259 86.7586 12.7195 85.2639 13.7066C83.7973 14.6655 82.7115 16.0615 82.0064 17.8947C81.3014 19.6997 80.9488 21.8713 80.9488 24.4095Z" fill="#383838"/>
<path d="M74.1428 9.34921V12.7336H60.9016V39.5544H57.0942V9.34921H74.1428Z" fill="#383838"/>
<path d="M33.5562 39.5544H29.7911V20.9406C29.7911 17.8947 30.7641 15.3 32.7101 13.1566C34.6843 11.0132 37.2226 9.94149 40.3249 9.94149H50.0126V39.5544H46.036V13.6643H40.3249C38.2661 13.6643 36.6162 14.2706 35.3753 15.4833C34.1626 16.6961 33.5562 18.628 33.5562 21.279V24.8749C35.1356 23.2109 37.3918 22.3789 40.3249 22.3789H44.1746V26.1017H40.3249C38.6891 26.1017 37.3495 26.2991 36.306 26.694C35.2907 27.0888 34.3741 27.7657 33.5562 28.7246V39.5544ZM41.0441 8.0378L38.8442 6.26102L43.8361 0L46.459 2.62286L41.0441 8.0378Z" fill="#383838"/>
<path d="M23.0981 39.5544H19.2907V25.4671H3.80738V39.5544H0V9.34921H3.80738V22.1251H19.2907V9.34921H23.0981V39.5544Z" fill="#383838"/>
</svg>
